<?xml version="1.0" standalone="no"?>
<!DOCTYPE svg PUBLIC "-//W3C//DTD SVG 20010904//EN"
 "http://www.w3.org/TR/2001/REC-SVG-20010904/DTD/svg10.dtd">
<svg version="1.0" xmlns="http://www.w3.org/2000/svg"
 width="2502.000000pt" height="2502.000000pt" viewBox="0 0 2502.000000 2502.000000"
 preserveAspectRatio="xMidYMid meet">

<g transform="translate(0.000000,2502.000000) scale(0.100000,-0.100000)"
fill="#000000" stroke="none">
<path d="M12035 25000 c-2347 -100 -4543 -813 -6472 -2101 -3054 -2039 -5063
-5337 -5472 -8984 -58 -513 -75 -834 -75 -1400 0 -497 7 -694 45 -1110 221
-2492 1183 -4854 2765 -6795 1699 -2084 4040 -3571 6654 -4225 1806 -452 3704
-493 5530 -120 2838 580 5375 2119 7204 4369 75 92 135 173 133 179 -2 6 -885
701 -1963 1544 -1077 842 -2035 1592 -2129 1666 -93 73 -471 368 -840 656
-368 287 -677 528 -685 534 -8 7 -44 34 -80 62 -36 27 -67 52 -70 55 -3 3 -23
18 -45 35 -86 63 -89 51 42 156 65 51 181 155 257 230 l139 136 821 -484 c452
-267 830 -490 841 -496 11 -7 39 -24 62 -39 22 -14 51 -29 62 -33 12 -3 21
-10 21 -15 0 -5 10 -12 23 -16 12 -3 45 -22 73 -40 28 -19 56 -34 63 -34 6 0
11 -4 11 -10 0 -5 6 -10 14 -10 27 0 271 459 406 764 365 826 571 1684 629
2626 12 180 6 801 -8 970 -108 1264 -470 2371 -1116 3410 -461 741 -1092 1440
-1782 1974 -135 103 -156 126 -133 141 5 3 8 11 6 18 -1 7 -1 9 1 5 8 -13 23
-9 23 6 0 8 5 16 10 18 6 2 11 24 13 50 1 25 5 44 9 42 4 -3 12 4 18 13 10 16
11 16 7 -4 -5 -23 17 -51 27 -35 3 5 2 12 -1 16 -4 3 -7 15 -8 25 -1 14 5 18
27 16 24 -2 28 0 23 16 -5 15 -1 19 17 20 l23 0 -22 9 c-13 5 -23 12 -23 15 0
4 4 4 9 0 5 -3 12 -1 16 5 6 9 -8 15 -28 11 -5 -1 1 10 12 25 14 17 19 34 15
47 -5 17 -4 18 9 6 15 -14 17 -30 5 -39 -4 -3 -3 -12 2 -20 8 -13 10 -12 10 3
0 9 7 17 16 17 14 0 14 3 4 15 -10 11 -10 19 -2 27 6 6 8 18 5 27 -4 13 -3 13
5 2 5 -7 15 -10 21 -7 6 4 11 1 11 -7 0 -8 8 -21 18 -28 14 -11 15 -11 5 1 -7
8 -13 26 -13 40 0 14 -5 31 -11 37 -13 13 7 13 28 0 7 -5 21 -3 30 3 16 10 16
11 -2 7 -11 -2 -27 2 -34 10 -11 12 -10 14 5 11 13 -2 18 2 16 14 -2 12 3 15
18 11 11 -3 20 -1 20 5 0 6 -8 13 -17 15 -17 4 -17 5 0 6 9 0 17 5 17 10 0 5
14 14 30 21 30 12 30 13 14 37 -8 14 -13 27 -10 31 3 3 6 1 6 -5 0 -5 7 -10
15 -10 9 0 15 10 15 23 0 13 5 26 12 30 8 5 9 2 5 -9 -3 -10 -2 -17 4 -17 5 0
12 7 15 15 4 8 10 13 14 10 5 -3 12 -1 15 5 4 6 3 10 -2 9 -28 -5 -41 2 -36
21 3 11 10 20 15 20 6 0 8 -7 4 -15 -3 -8 -1 -15 4 -15 6 0 10 5 10 11 0 7 9
9 21 6 15 -4 19 -2 15 10 -3 8 -6 17 -6 19 0 2 -12 1 -26 -2 -20 -5 -25 -3
-22 7 3 8 -2 23 -11 34 -16 20 -16 20 6 1 13 -10 20 -23 17 -27 -7 -12 10 -11
22 0 5 6 22 12 38 15 33 6 47 16 23 16 -23 0 -21 8 6 31 27 22 38 24 31 4 -4
-8 -4 -15 -1 -15 3 0 8 7 11 15 4 10 -3 19 -19 27 -30 14 -42 38 -14 31 10 -3
16 -9 13 -14 -3 -5 4 -9 15 -9 29 0 36 18 15 41 -9 10 -14 22 -10 26 4 4 11 1
16 -7 8 -12 10 -12 16 3 3 9 12 17 19 17 7 0 16 8 19 17 6 15 8 15 16 3 8 -13
10 -12 10 3 0 13 -5 17 -18 13 -29 -9 -22 35 10 65 15 15 24 30 20 35 -4 5 2
1 14 -8 16 -14 23 -15 32 -6 7 7 12 18 12 25 0 12 15 17 48 16 8 -1 5 11 -9
34 -22 35 -22 35 -1 24 29 -16 41 -13 18 4 -11 8 -17 18 -13 21 4 4 14 1 23
-7 16 -13 16 -12 5 9 -6 12 -8 22 -4 22 4 0 3 4 -4 8 -7 4 -9 13 -4 21 14 23
33 3 20 -21 -8 -15 -8 -19 0 -13 6 3 10 2 9 -3 -2 -6 2 -10 7 -10 6 0 8 5 7
12 -10 30 -10 46 -1 46 5 0 9 -4 9 -8 0 -5 7 -9 15 -9 13 0 12 3 -2 19 -9 10
-23 16 -30 13 -8 -2 -12 -1 -8 4 3 5 -1 12 -7 15 -13 6 -1 4 52 -9 21 -5 26
-2 27 14 2 25 -14 28 -21 4 -4 -14 -4 -14 -3 2 1 11 -2 26 -6 33 -10 15 -2 15
23 2 20 -11 39 3 20 15 -5 3 -10 11 -10 16 0 6 7 3 16 -5 8 -9 20 -16 25 -16
13 0 -7 37 -23 43 -8 3 -6 6 5 6 13 1 16 7 13 26 -3 14 -1 23 5 20 5 -4 9 -1
9 4 0 6 -5 11 -12 11 -6 0 -8 3 -5 6 4 4 13 1 22 -6 11 -9 15 -9 15 -1 0 7 3
10 8 8 9 -6 33 19 25 27 -4 3 -1 6 5 6 5 0 13 -6 16 -12 4 -7 4 -3 2 10 -2 12
0 22 5 22 5 0 9 9 9 20 0 11 6 20 14 20 8 0 21 7 30 15 8 9 21 14 28 13 7 -2
12 5 12 15 -2 19 6 22 24 7 6 -6 10 -7 7 -3 -3 3 3 16 12 27 18 21 18 21 -3 3
-11 -9 -23 -14 -27 -11 -3 4 -14 4 -23 0 -14 -5 -14 -9 -3 -24 13 -15 12 -16
-4 -3 -14 11 -15 16 -5 29 11 13 9 14 -12 8 -23 -6 -23 -6 -5 5 11 7 24 17 28
23 5 7 6 3 3 -8 -5 -16 -4 -17 8 -7 8 7 12 19 9 27 -3 9 2 14 17 14 12 0 18
-4 15 -10 -4 -6 -10 -8 -14 -6 -3 3 -7 -4 -7 -15 0 -19 1 -19 13 -3 6 9 18 14
25 11 8 -3 14 2 14 13 0 11 -6 16 -15 12 -9 -3 -12 0 -9 9 2 8 15 16 28 17 17
3 20 6 10 12 -11 7 -10 12 4 25 12 12 16 28 13 52 -4 29 -3 32 10 22 8 -7 12
-20 10 -30 -3 -12 0 -15 15 -11 15 4 17 7 6 13 -10 7 -7 11 10 15 18 5 20 9
11 20 -6 8 -15 12 -19 9 -5 -3 -11 -1 -15 4 -3 6 4 8 15 6 30 -6 46 3 47 25 1
11 -2 18 -7 15 -6 -4 -7 2 -3 11 4 12 3 15 -5 10 -7 -4 -12 -5 -12 -2 0 3 10
10 21 17 13 7 19 7 15 1 -4 -6 2 -10 14 -9 20 1 29 27 10 27 -5 0 -10 5 -10
12 0 9 3 9 12 0 15 -15 45 -15 54 0 4 6 3 8 -4 4 -6 -3 -13 -2 -17 4 -6 9 16
15 39 11 5 -1 4 4 -2 12 -7 8 -11 16 -9 18 1 2 -6 -4 -16 -13 -10 -10 -28 -18
-40 -18 -21 1 -21 1 -3 11 15 9 16 13 5 21 -10 6 -6 7 11 2 21 -6 23 -5 13 7
-10 12 -8 14 10 13 35 -2 58 -15 50 -28 -4 -6 1 -5 10 3 18 14 24 26 8 17 -4
-3 -19 3 -31 14 -13 11 -18 20 -11 20 13 0 11 41 -2 51 -5 3 5 6 22 5 22 -1
30 -5 26 -14 -3 -8 -5 -19 -5 -25 0 -7 -4 -6 -10 3 -8 11 -9 8 -8 -13 l2 -27
27 27 c14 16 23 30 19 33 -3 3 -9 13 -13 22 -5 13 0 19 19 24 14 4 23 9 20 12
-3 3 2 11 12 19 11 9 11 12 2 7 -12 -6 -13 -4 -2 7 17 19 15 39 -5 39 -17 1
-17 1 0 11 10 6 14 15 10 22 -4 8 -1 7 9 -1 10 -8 18 -9 22 -3 4 6 14 7 23 4
11 -4 14 -3 9 5 -5 8 -1 10 11 6 14 -4 12 0 -6 15 -13 12 -21 24 -17 28 3 3 6
3 6 -2 0 -4 8 -1 17 6 11 10 14 10 9 2 -4 -7 -2 -13 3 -13 6 0 11 5 11 11 0 5
4 8 9 4 5 -3 13 0 17 6 4 7 -5 23 -22 37 l-29 25 30 -5 c28 -6 29 -5 10 9 -19
15 -19 15 4 8 20 -6 23 -4 18 9 -4 11 -1 17 11 18 9 0 22 2 27 3 6 2 14 3 20
4 5 0 4 6 -3 13 -19 19 -14 45 14 67 l27 21 -22 19 c-12 11 -18 22 -13 25 6 3
13 -1 16 -10 3 -8 11 -12 17 -8 8 4 9 3 5 -4 -4 -7 -3 -12 3 -12 5 0 13 5 16
11 4 6 14 8 22 5 8 -3 11 -1 8 4 -3 6 -1 10 6 10 8 0 8 4 -1 15 -11 13 -10 14
5 9 14 -6 16 -4 9 7 -4 8 -9 19 -10 24 -1 6 -5 19 -8 30 -5 15 -4 15 5 -2 7
-13 17 -23 23 -23 6 0 4 -5 -4 -10 -12 -8 -10 -10 9 -8 31 4 61 30 47 40 -6 4
-1 8 11 8 27 0 38 16 17 24 -8 3 -12 2 -9 -4 3 -6 1 -10 -4 -10 -6 0 -11 10
-11 23 0 14 -3 18 -8 10 -5 -8 -13 -9 -22 -3 -13 8 -12 10 3 11 9 1 23 2 30 3
6 1 12 11 12 23 0 11 4 25 8 30 5 4 7 -1 5 -12 -1 -11 2 -20 7 -20 6 0 16 -4
23 -9 8 -5 18 -4 25 3 9 9 8 11 -5 6 -13 -5 -18 -2 -18 9 0 9 5 16 10 16 6 0
10 5 10 11 0 5 -5 7 -11 3 -7 -4 -10 -1 -7 7 3 8 11 14 19 14 8 0 24 4 36 8
22 8 22 9 4 29 -11 11 -24 17 -30 13 -6 -3 -11 -2 -11 4 0 5 9 12 20 16 16 5
19 13 15 43 -3 26 -2 31 4 17 5 -11 7 -23 4 -27 -2 -5 1 -8 8 -8 10 0 10 -3 1
-12 -19 -19 -14 -33 6 -15 10 10 21 15 24 12 3 -3 13 5 24 17 19 22 19 22 0 8
-15 -12 -20 -12 -23 -2 -3 6 -10 9 -15 6 -7 -4 -8 -2 -4 5 4 6 11 9 16 6 4 -3
13 2 20 10 7 8 17 12 22 9 5 -3 4 4 -4 15 -11 18 -11 23 1 30 11 7 11 9 0 14
-12 5 23 11 44 8 4 0 7 3 7 9 0 5 -5 10 -11 10 -8 0 -8 4 -1 13 7 8 7 18 2 27
-6 8 -10 20 -10 25 0 6 4 3 10 -5 8 -12 10 -12 16 3 5 13 10 15 20 6 9 -7 18
-7 31 0 16 9 16 10 -4 11 -13 0 -23 4 -23 9 0 5 9 7 20 4 15 -4 20 0 20 13 0
15 -2 16 -9 5 -5 -7 -13 -11 -19 -7 -6 3 -13 2 -17 -4 -8 -13 -25 -13 -25 -1
0 10 30 23 68 30 4 1 0 6 -8 12 -12 9 -12 10 3 5 34 -11 61 45 32 66 -5 4 5
10 23 14 26 5 32 11 30 28 -2 15 -9 20 -23 18 -16 -2 -17 -1 -5 7 19 13 43 14
35 2 -7 -13 24 -43 37 -35 7 5 9 0 6 -13 -3 -12 0 -20 8 -20 17 0 17 3 4 28
-8 14 -8 24 0 37 10 15 11 15 6 0 -2 -9 1 -21 8 -27 10 -8 11 -4 8 19 -2 17
-10 30 -18 30 -8 0 -14 5 -14 11 0 6 7 8 15 5 52 -21 51 -21 32 1 -9 11 -14
24 -10 28 5 5 0 3 -9 -4 -10 -7 -18 -10 -18 -6 0 4 -9 -3 -19 -16 l-20 -24 6
23 c3 12 9 22 14 22 5 0 23 15 40 33 24 24 27 33 16 35 -9 2 -15 12 -14 22 1
10 5 16 9 14 5 -3 5 -11 2 -17 -5 -8 -3 -8 7 1 7 6 18 12 23 12 6 0 4 -5 -4
-11 -12 -9 -12 -10 3 -5 10 3 23 6 28 6 16 0 10 18 -8 23 -14 4 -13 5 4 6 12
0 23 -5 26 -11 3 -10 7 -10 20 0 16 14 12 47 -4 36 -5 -3 -9 2 -9 10 0 10 6
13 15 10 8 -4 15 -11 15 -18 0 -6 5 -4 10 4 9 13 10 13 10 0 0 -13 1 -13 10 0
6 10 3 21 -12 37 -20 22 -8 27 21 9 10 -6 12 -5 7 2 -4 7 -1 12 8 12 8 0 17
-8 19 -17 4 -14 5 -13 6 4 1 15 -8 24 -31 33 -25 10 -29 14 -15 17 9 3 15 10
11 16 -3 7 4 1 15 -13 11 -14 21 -19 21 -12 0 7 5 10 10 7 6 -3 10 -1 10 5 0
6 -8 10 -17 8 -10 -2 -18 3 -18 10 0 7 -6 17 -14 21 -9 6 -10 11 -2 15 6 4 11
2 11 -3 0 -6 7 -11 16 -11 8 0 12 -4 9 -10 -3 -5 1 -10 9 -10 8 0 18 5 22 12
4 7 3 8 -4 4 -7 -4 -12 -1 -12 8 0 19 12 20 29 4 10 -11 11 -10 6 5 -4 9 -16
17 -27 17 -10 0 -16 5 -13 10 4 6 14 9 23 8 10 -2 18 5 20 17 2 16 1 17 -7 5
-6 -8 -11 -10 -11 -4 0 15 25 36 33 27 4 -3 7 1 7 11 0 14 -4 15 -20 6 -14 -7
-20 -7 -20 0 0 5 7 10 15 10 8 0 14 5 13 11 -2 6 4 14 12 16 13 4 13 3 0 -6
-12 -9 -12 -11 3 -16 14 -6 15 -11 5 -28 -7 -12 -11 -28 -10 -34 2 -7 -2 -13
-8 -13 -14 0 -13 -17 3 -23 8 -3 13 6 14 26 1 17 7 33 11 36 5 3 8 18 6 34 -1
15 2 27 7 27 6 0 7 5 4 10 -3 6 -2 10 4 10 5 0 12 -6 14 -12 3 -7 6 -3 6 10 1
15 -3 21 -11 16 -6 -4 -8 -3 -4 4 3 5 0 12 -6 15 -10 4 -10 7 0 18 11 12 13
12 10 0 -2 -7 3 -16 11 -19 8 -2 11 0 8 6 -4 5 0 15 8 22 16 13 18 11 29 -35
2 -11 3 2 2 28 -2 26 1 50 6 53 4 3 8 -2 8 -10 0 -9 4 -16 10 -16 5 0 6 7 3
17 -4 10 -2 14 5 9 6 -3 13 -2 17 4 3 5 1 10 -4 10 -6 0 -11 5 -11 10 0 6 7
10 15 10 8 0 15 5 15 11 0 5 -4 7 -10 4 -6 -3 -7 1 -3 10 3 9 9 13 12 8 11
-15 30 -13 25 2 -6 15 4 19 39 16 9 -1 17 3 17 9 0 7 8 9 21 5 15 -5 19 -4 15
4 -4 6 -17 11 -29 12 -25 1 -99 27 -80 28 6 1 23 -3 37 -9 14 -5 26 -6 26 -1
0 8 -17 18 -30 19 -3 0 -22 16 -44 35 -24 22 -46 34 -58 32 -12 -3 -18 1 -15
8 3 11 -58 66 -75 67 -4 0 -34 20 -65 43 -83 63 -329 226 -356 236 -13 5 -36
20 -53 33 -45 36 -114 79 -114 71 0 -5 -4 -3 -8 3 -7 12 -205 134 -217 134 -3
0 -22 12 -41 26 -19 15 -34 22 -34 18 0 -5 -4 -4 -8 2 -9 15 -311 184 -329
184 -7 0 -13 4 -13 9 0 11 -634 327 -810 404 -69 30 -151 67 -182 81 -31 14
-59 26 -62 26 -4 0 -25 9 -49 20 -50 23 -373 151 -472 187 -399 144 -547 193
-920 299 -726 208 -1394 337 -2175 419 -118 12 -413 36 -570 45 -244 14 -915
20 -1155 10z m7605 -2354 c0 -3 -4 -8 -10 -11 -5 -3 -10 -1 -10 4 0 6 5 11 10
11 6 0 10 -2 10 -4z m136 -22 c-3 -15 -8 -29 -11 -32 -3 -3 -3 5 -1 19 2 13 5
27 5 32 1 4 3 7 6 7 3 0 3 -12 1 -26z m34 -19 c0 -8 -2 -15 -4 -15 -2 0 -6 7
-10 15 -3 8 -1 15 4 15 6 0 10 -7 10 -15z m-215 -5 c3 -6 -1 -7 -9 -4 -18 7
-21 14 -7 14 6 0 13 -4 16 -10z m50 -10 c3 -5 1 -10 -4 -10 -6 0 -11 5 -11 10
0 6 2 10 4 10 3 0 8 -4 11 -10z m229 -29 c3 -4 -4 -7 -14 -8 -11 -1 -22 2 -24
6 -3 4 4 7 14 8 11 1 22 -2 24 -6z m-71 -28 c-3 -7 -6 -13 -8 -13 -2 0 -5 6
-8 13 -3 8 1 14 8 14 7 0 11 -6 8 -14z m-38 -13 c-4 -6 -1 -17 5 -25 7 -9 8
-15 2 -15 -12 0 -24 29 -16 41 3 5 7 9 10 9 3 0 2 -5 -1 -10z m-22 -81 c3 -12
3 -18 0 -15 -4 3 -12 1 -20 -5 -10 -9 -13 -8 -13 0 0 9 19 39 26 41 1 0 4 -9
7 -21z m-228 -5 c-11 -8 -19 -20 -17 -25 1 -6 -3 -7 -9 -3 -9 5 -5 13 10 26
13 10 26 18 30 18 3 0 -3 -8 -14 -16z m118 -44 c-3 -12 -8 -19 -11 -16 -5 6 5
36 12 36 2 0 2 -9 -1 -20z m-109 -16 c3 -8 2 -12 -4 -9 -6 3 -10 10 -10 16 0
14 7 11 14 -7z m-151 -28 c-10 -13 -20 -22 -22 -20 -4 4 29 44 36 44 2 0 -4
-11 -14 -24z m185 -1 c-3 -3 -9 2 -12 12 -6 14 -5 15 5 6 7 -7 10 -15 7 -18z
m109 10 c0 -6 -6 -12 -14 -12 -7 0 -13 6 -13 12 0 6 6 12 13 12 8 0 14 -6 14
-12z m-147 -20 c11 -13 10 -14 -4 -9 -9 3 -16 10 -16 15 0 13 6 11 20 -6z
m-70 1 c0 -11 -19 -15 -25 -6 -3 5 1 10 9 10 9 0 16 -2 16 -4z m137 -61 c0 -8
-4 -12 -9 -9 -4 3 -8 9 -8 15 0 5 4 9 8 9 5 0 9 -7 9 -15z m-230 -27 c-3 -8
-6 -5 -6 6 -1 11 2 17 5 13 3 -3 4 -12 1 -19z m150 -23 c0 -8 -4 -12 -9 -9 -5
3 -6 10 -3 15 9 13 12 11 12 -6z m13 -65 c0 -5 -2 -10 -4 -10 -3 0 -8 5 -11
10 -3 6 -1 10 4 10 6 0 11 -4 11 -10z m-120 -15 c0 -8 -4 -15 -8 -15 -5 0 -9
7 -9 15 0 8 4 15 9 15 4 0 8 -7 8 -15z m44 -12 c-26 -19 -36 -16 -24 7 6 12
16 17 27 13 14 -6 14 -8 -3 -20z m50 19 c3 -5 -1 -9 -9 -9 -8 0 -12 4 -9 9 3
4 7 8 9 8 2 0 6 -4 9 -8z m-139 -32 c10 -11 16 -20 13 -20 -3 0 -13 9 -23 20
-10 11 -16 20 -13 20 3 0 13 -9 23 -20z m-65 -26 c0 -2 -8 0 -19 5 -10 6 -22
7 -26 3 -5 -4 -5 -1 -1 6 5 9 12 9 27 2 10 -6 19 -13 19 -16z m129 -30 c-2 -1
4 -10 13 -21 16 -18 16 -19 -9 -21 -19 -1 -23 1 -16 11 13 17 10 43 -5 40 -7
-2 -9 4 -5 13 5 14 7 14 16 -2 6 -11 9 -20 6 -20z m57 16 c13 0 24 -5 24 -10
0 -20 -55 -4 -57 16 -2 10 0 13 3 7 3 -7 17 -13 30 -13z m-90 -63 c1 -9 -2
-15 -7 -11 -5 3 -7 9 -4 14 3 5 -3 11 -12 14 -15 4 -15 5 1 3 11 -1 20 -10 22
-20z m94 -1 c0 -3 -4 -8 -10 -11 -5 -3 -10 -1 -10 4 0 6 5 11 10 11 6 0 10 -2
10 -4z m-352 -31 c-3 -3 -9 2 -12 12 -6 14 -5 15 5 6 7 -7 10 -15 7 -18z m156
-51 c3 -8 2 -12 -4 -9 -6 3 -10 10 -10 16 0 14 7 11 14 -7z m-143 -17 c-6 -8
-8 -17 -4 -21 4 -4 0 -4 -10 0 -17 6 -17 7 0 20 23 17 28 18 14 1z m-61 -43
c0 -8 -19 -13 -24 -6 -3 5 1 9 9 9 8 0 15 -2 15 -3z m48 -29 c-3 -3 -9 2 -12
12 -6 14 -5 15 5 6 7 -7 10 -15 7 -18z m97 -15 c3 -6 -1 -7 -9 -4 -18 7 -21
14 -7 14 6 0 13 -4 16 -10z m95 1 c0 -6 -4 -12 -8 -15 -5 -3 -9 1 -9 9 0 8 4
15 9 15 4 0 8 -4 8 -9z m-340 -31 c0 -4 -7 -7 -15 -6 -23 3 -26 12 -5 13 11 1
20 -2 20 -7z m207 -39 c0 -11 -5 -18 -9 -15 -4 3 -5 11 -1 19 7 21 12 19 10
-4z m-239 -16 c-3 -3 -9 2 -12 12 -6 14 -5 15 5 6 7 -7 10 -15 7 -18z m72 6
c0 -6 -4 -12 -8 -15 -5 -3 -9 1 -9 9 0 8 4 15 9 15 4 0 8 -4 8 -9z m-35 -20
c3 -5 2 -12 -3 -15 -5 -3 -9 1 -9 9 0 17 3 19 12 6z m175 -5 c0 -3 -4 -8 -10
-11 -5 -3 -10 -1 -10 4 0 6 5 11 10 11 6 0 10 -2 10 -4z m-160 -61 c0 -5 -5
-3 -10 5 -5 8 -10 20 -10 25 0 6 5 3 10 -5 5 -8 10 -19 10 -25z m25 15 c3 -5
1 -10 -4 -10 -6 0 -11 5 -11 10 0 6 2 10 4 10 3 0 8 -4 11 -10z m-50 -58 c-3
-3 -11 0 -18 7 -9 10 -8 11 6 5 10 -3 15 -9 12 -12z m-78 -47 c0 -8 -4 -12 -9
-9 -5 3 -6 10 -3 15 9 13 12 11 12 -6z m188 -9 c0 -18 -3 -22 -13 -14 -9 8 -9
14 -1 24 15 18 14 18 14 -10z m-215 -16 c0 -5 -5 -10 -11 -10 -5 0 -7 5 -4 10
3 6 8 10 11 10 2 0 4 -4 4 -10z m175 -10 c-3 -4 0 -11 5 -13 6 -3 5 -4 -2 -3
-7 1 -15 11 -16 21 -3 11 0 15 7 10 6 -3 9 -10 6 -15z m-174 -47 c-12 -20 -14
-14 -5 12 4 9 9 14 11 11 3 -2 0 -13 -6 -23z m156 7 c2 -22 -12 -35 -22 -20
-3 5 -1 10 4 10 6 0 10 3 10 8 -2 10 0 22 4 22 1 0 3 -9 4 -20z m-85 -4 c3 3
8 -1 11 -9 8 -20 -15 -17 -38 6 -20 20 -20 20 1 9 12 -6 24 -9 26 -6z m114
-21 c-8 -23 -25 -9 -19 16 4 13 9 17 16 10 5 -5 7 -17 3 -26z m-159 0 c0 -8
-4 -12 -9 -9 -5 3 -6 10 -3 15 9 13 12 11 12 -6z m-82 -23 c-3 -3 -11 0 -18 7
-9 10 -8 11 6 5 10 -3 15 -9 12 -12z m87 -84 c-7 -7 -12 -8 -12 -2 0 14 12 26
19 19 2 -3 -1 -11 -7 -17z m-219 -3 c-3 -9 -8 -14 -10 -11 -3 3 -2 9 2 15 9
16 15 13 8 -4z m97 -15 c0 -5 -2 -10 -4 -10 -3 0 -8 5 -11 10 -3 6 -1 10 4 10
6 0 11 -4 11 -10z m195 -1 c10 -14 1 -21 -19 -13 -9 3 -13 10 -10 15 7 12 21
11 29 -2z m-65 -19 c-8 -5 -19 -10 -25 -10 -5 0 -3 5 5 10 8 5 20 10 25 10 6
0 3 -5 -5 -10z m-205 -90 c-4 -6 -1 -19 6 -28 12 -16 12 -16 -5 0 -16 14 -15
38 0 38 3 0 2 -5 -1 -10z m-80 -19 c3 -5 2 -12 -3 -15 -5 -3 -9 1 -9 9 0 17 3
19 12 6z m224 -32 c6 10 9 9 14 -2 8 -22 -19 -29 -38 -11 -20 20 -19 30 1 13
12 -10 17 -10 23 0z m-173 -19 c0 -12 -4 -16 -9 -11 -5 5 -6 14 -3 20 10 15
12 14 12 -9z m98 -45 c-4 -8 -11 -15 -16 -15 -6 0 -5 6 2 15 7 8 14 15 16 15
2 0 1 -7 -2 -15z m-76 -79 c-7 -8 -15 -12 -17 -11 -5 6 10 25 20 25 5 0 4 -6
-3 -14z m-28 -9 c0 -2 -9 -12 -19 -21 -14 -13 -21 -14 -27 -5 -4 7 -3 10 3 6
6 -4 16 0 23 8 12 14 20 19 20 12z m-193 -23 c-3 -3 -12 -4 -19 -1 -8 3 -5 6
6 6 11 1 17 -2 13 -5z m125 -32 c-7 -2 -10 -8 -7 -13 4 -5 -2 -6 -11 -2 -11 4
-13 8 -6 11 7 2 10 8 7 13 -4 5 2 6 11 2 11 -4 13 -8 6 -11z m78 -4 c0 -6 -6
-5 -15 2 -8 7 -15 14 -15 16 0 2 7 1 15 -2 8 -4 15 -11 15 -16z m-30 -9 c13
-9 13 -10 -1 -6 -9 3 -22 0 -28 -6 -9 -9 -11 -8 -6 6 8 20 14 21 35 6z m-174
-14 c-1 -8 -5 -17 -8 -21 -5 -4 -4 16 1 34 3 9 9 -1 7 -13z m-31 -44 c3 -5 2
-12 -3 -15 -5 -3 -9 1 -9 9 0 17 3 19 12 6z m-12 -51 c3 -11 1 -18 -4 -14 -5
3 -9 12 -9 20 0 20 7 17 13 -6z m191 5 c4 -13 2 -14 -14 -5 -23 13 -26 20 -6
20 8 0 16 -7 20 -15z m-49 -5 c3 -6 -1 -7 -9 -4 -18 7 -21 14 -7 14 6 0 13 -4
16 -10z m-155 -24 c0 -2 -8 -10 -17 -17 -16 -13 -17 -12 -4 4 13 16 21 21 21
13z m60 -16 c8 -5 11 -10 5 -10 -5 0 -17 5 -25 10 -8 5 -10 10 -5 10 6 0 17
-5 25 -10z m-130 -24 c0 -3 -4 -8 -10 -11 -5 -3 -10 -1 -10 4 0 6 5 11 10 11
6 0 10 -2 10 -4z m137 -72 c10 -26 -12 -36 -32 -14 -21 24 -14 27 9 4 14 -13
16 -13 16 -1 0 9 -6 18 -12 20 -10 4 -10 6 0 6 7 1 15 -6 19 -15z m-222 -14
c-3 -5 -12 -10 -18 -10 -7 0 -6 4 3 10 19 12 23 12 15 0z m-2 -50 c3 -11 1
-18 -4 -14 -5 3 -9 12 -9 20 0 20 7 17 13 -6z m107 6 c0 -3 -4 -8 -10 -11 -5
-3 -10 -1 -10 4 0 6 5 11 10 11 6 0 10 -2 10 -4z m-49 -63 c13 -16 12 -17 -3
-4 -10 7 -18 15 -18 17 0 8 8 3 21 -13z m-34 -98 c0 -8 -4 -12 -9 -9 -5 3 -6
10 -3 15 9 13 12 11 12 -6z m-192 -15 c3 -6 -1 -7 -9 -4 -18 7 -21 14 -7 14 6
0 13 -4 16 -10z m20 -48 c-6 -7 -34 11 -29 19 3 5 11 3 19 -4 7 -6 12 -13 10
-15z m146 1 c-12 -20 -14 -14 -5 12 4 9 9 14 11 11 3 -2 0 -13 -6 -23z m-181
-18 c0 -8 -4 -15 -10 -15 -5 0 -7 7 -4 15 4 8 8 15 10 15 2 0 4 -7 4 -15z m24
-11 c3 -8 2 -12 -4 -9 -6 3 -10 10 -10 16 0 14 7 11 14 -7z m171 -14 c3 -6 -1
-7 -9 -4 -18 7 -21 14 -7 14 6 0 13 -4 16 -10z m-98 -42 c2 -17 0 -19 -7 -8
-5 8 -6 18 -4 22 8 12 10 10 11 -14z m-62 2 c3 -5 1 -10 -4 -10 -6 0 -11 5
-11 10 0 6 2 10 4 10 3 0 8 -4 11 -10z m-85 -14 c0 -2 -7 -7 -16 -10 -8 -3
-12 -2 -9 4 6 10 25 14 25 6z m13 -21 c-3 -9 -8 -14 -10 -11 -3 3 -2 9 2 15 9
16 15 13 8 -4z m54 -37 c-3 -8 -6 -5 -6 6 -1 11 2 17 5 13 3 -3 4 -12 1 -19z
m73 -30 c0 -6 -6 -5 -15 2 -8 7 -15 14 -15 16 0 2 7 1 15 -2 8 -4 15 -11 15
-16z m-26 -23 c-4 -8 -14 -15 -23 -14 -15 0 -15 1 1 12 15 10 15 12 0 25 -15
11 -14 12 5 2 14 -6 20 -16 17 -25z m-95 -109 c7 -8 8 -17 3 -20 -6 -3 -12 3
-15 14 -6 24 -4 25 12 6z m-122 -12 c-2 -3 -17 -7 -33 -10 -17 -2 -24 -1 -17
4 13 8 58 14 50 6z m89 -31 c-11 -11 -17 4 -9 23 7 18 8 18 11 1 2 -10 1 -21
-2 -24z m-186 -99 c0 -8 -19 -13 -24 -6 -3 5 1 9 9 9 8 0 15 -2 15 -3z m27
-96 c-3 -8 -6 -5 -6 6 -1 11 2 17 5 13 3 -3 4 -12 1 -19z m-193 -24 c3 -8 2
-12 -4 -9 -6 3 -10 10 -10 16 0 14 7 11 14 -7z m176 -36 c0 -11 -43 7 -48 20
-2 7 5 7 22 -1 14 -7 26 -15 26 -19z m-80 -84 c0 -7 -9 -18 -20 -24 -12 -7
-18 -16 -13 -23 4 -7 -2 -5 -13 3 -29 22 -30 24 -11 17 9 -4 17 -2 17 3 0 6 7
10 16 10 13 0 14 3 5 13 -8 10 -7 14 4 14 8 0 15 -6 15 -13z m-87 -19 c-3 -9
-8 -14 -10 -11 -3 3 -2 9 2 15 9 16 15 13 8 -4z m21 -65 c15 -5 28 -6 31 0 3
5 12 7 21 3 8 -3 12 -8 9 -12 -9 -9 -85 -9 -79 0 2 4 -2 10 -8 12 -24 10 1 7
26 -3z m-207 -45 c0 -8 -4 -12 -9 -9 -5 3 -6 10 -3 15 9 13 12 11 12 -6z m213
-11 c0 -8 -4 -12 -10 -9 -5 3 -10 10 -10 16 0 5 5 9 10 9 6 0 10 -7 10 -16z
m-226 -20 c3 -8 2 -12 -4 -9 -6 3 -10 10 -10 16 0 14 7 11 14 -7z m22 -22
c-17 -16 -18 -16 -5 5 7 12 15 20 18 17 3 -2 -3 -12 -13 -22z m-12 -38 c3 -8
2 -12 -4 -9 -6 3 -10 10 -10 16 0 14 7 11 14 -7z m35 -10 c4 3 8 -1 8 -9 0
-11 -4 -12 -14 -4 -7 6 -13 17 -12 23 0 7 2 6 6 -2 2 -6 8 -10 12 -8z m17 -50
c-3 -23 -13 -26 -18 -6 -3 11 0 19 7 19 7 0 12 -6 11 -13z m-31 -23 c-6 -5
-25 10 -25 20 0 5 6 4 14 -3 8 -7 12 -15 11 -17z m65 -31 c0 -5 -5 -10 -11
-10 -5 0 -7 5 -4 10 3 6 8 10 11 10 2 0 4 -4 4 -10z m-110 -20 c0 -5 -2 -10
-4 -10 -3 0 -8 5 -11 10 -3 6 -1 10 4 10 6 0 11 -4 11 -10z m60 -20 c0 -5 -7
-10 -16 -10 -8 0 -12 5 -9 10 3 6 10 10 16 10 5 0 9 -4 9 -10z m-300 -180 c0
-5 -5 -10 -11 -10 -5 0 -7 5 -4 10 3 6 8 10 11 10 2 0 4 -4 4 -10z m134 -6 c5
-14 4 -15 -9 -4 -17 14 -19 20 -6 20 5 0 12 -7 15 -16z m-16 -69 c-3 -3 -9 2
-12 12 -6 14 -5 15 5 6 7 -7 10 -15 7 -18z m-88 -55 c0 -4 -6 -12 -13 -18 -10
-8 -13 -6 -13 7 0 10 6 18 13 18 7 0 13 -4 13 -7z m-194 -101 c1 -17 -2 -27
-5 -21 -3 5 -15 14 -26 21 -13 8 -14 11 -3 7 9 -2 19 2 22 10 8 21 11 17 12
-17z m92 16 c-2 -1 -14 -8 -28 -14 -22 -11 -23 -10 -8 2 10 8 15 17 11 21 -4
4 1 4 10 0 10 -3 17 -8 15 -9z m-119 -111 c-6 -8 -19 -14 -28 -13 -12 0 -11 2
4 9 11 5 16 9 12 9 -5 1 -5 6 -2 11 4 6 11 8 16 4 6 -4 6 -11 -2 -20z m51 -14
c0 -5 -2 -10 -4 -10 -3 0 -8 5 -11 10 -3 6 -1 10 4 10 6 0 11 -4 11 -10z m-3
-42 c-3 -8 -6 -5 -6 6 -1 11 2 17 5 13 3 -3 4 -12 1 -19z m-2 -26 c-3 -3 -11
0 -18 7 -9 10 -8 11 6 5 10 -3 15 -9 12 -12z m-150 -92 c-3 -5 -12 -10 -18
-10 -7 0 -6 4 3 10 19 12 23 12 15 0z m-80 -10 c3 -5 1 -10 -4 -10 -6 0 -11 5
-11 10 0 6 2 10 4 10 3 0 8 -4 11 -10z m140 0 c-3 -5 -1 -10 5 -10 7 0 6 -5
-2 -14 -17 -18 -32 2 -16 21 12 15 22 17 13 3z m-105 -10 c0 -5 -5 -10 -11
-10 -5 0 -7 5 -4 10 3 6 8 10 11 10 2 0 4 -4 4 -10z m64 -75 c-7 -18 -20 -19
-30 -3 -4 6 -3 8 4 4 6 -3 13 -2 17 4 9 15 15 12 9 -5z"/>
<path d="M19868 22523 c7 -3 16 -2 19 1 4 3 -2 6 -13 5 -11 0 -14 -3 -6 -6z"/>
<path d="M19926 22458 c3 -5 10 -6 15 -3 13 9 11 12 -6 12 -8 0 -12 -4 -9 -9z"/>
<path d="M19820 22452 c0 -5 7 -9 15 -9 8 0 12 4 9 9 -3 4 -9 8 -15 8 -5 0 -9
-4 -9 -8z"/>
<path d="M19908 22415 c6 -49 18 -52 14 -4 -2 21 -7 39 -11 39 -4 0 -5 -16 -3
-35z"/>
<path d="M19873 22415 c0 -6 6 -12 12 -12 6 0 12 6 12 12 0 6 -6 12 -12 12 -6
0 -12 -6 -12 -12z"/>
<path d="M19875 22380 c-4 -6 -10 -8 -15 -5 -5 3 -11 1 -14 -4 -8 -12 14 -8
39 7 11 6 15 12 8 12 -6 0 -15 -5 -18 -10z"/>
<path d="M19725 22370 c-3 -5 -1 -10 4 -10 6 0 11 5 11 10 0 6 -2 10 -4 10 -3
0 -8 -4 -11 -10z"/>
<path d="M19836 22342 c-3 -5 1 -9 9 -9 8 0 12 4 9 9 -3 4 -7 8 -9 8 -2 0 -6
-4 -9 -8z"/>
<path d="M19895 22331 c-3 -5 -2 -12 3 -15 5 -3 9 1 9 9 0 17 -3 19 -12 6z"/>
<path d="M19705 22290 c3 -5 8 -10 11 -10 2 0 4 5 4 10 0 6 -5 10 -11 10 -5 0
-7 -4 -4 -10z"/>
<path d="M19794 22288 c-4 -5 -3 -12 0 -15 3 -4 6 -1 6 6 0 7 4 10 9 6 5 -3
12 -2 15 3 3 5 -2 9 -10 9 -8 0 -17 -4 -20 -9z"/>
<path d="M19745 22239 c7 -10 -20 -30 -29 -22 -3 4 -14 8 -23 9 -11 2 -13 0
-4 -9 18 -18 38 -16 60 7 16 17 18 23 7 23 -8 0 -13 -4 -11 -8z"/>
<path d="M19795 22231 c-3 -5 -2 -12 3 -15 5 -3 9 1 9 9 0 17 -3 19 -12 6z"/>
<path d="M19770 22195 c-7 -8 -16 -13 -20 -10 -10 6 -7 -22 4 -32 4 -4 6 -1 4
7 -1 8 3 14 11 15 8 0 15 8 17 18 3 21 0 21 -16 2z"/>
<path d="M19669 22139 l-24 -20 28 17 c15 9 27 18 27 20 0 8 -8 4 -31 -17z"/>
<path d="M19667 22087 c-3 -8 -1 -20 4 -28 7 -12 9 -12 9 0 0 11 3 11 18 0 13
-11 13 -8 -3 11 -11 14 -20 26 -21 28 -1 2 -4 -3 -7 -11z"/>
<path d="M19626 22068 c3 -5 10 -6 15 -3 13 9 11 12 -6 12 -8 0 -12 -4 -9 -9z"/>
<path d="M19627 22030 c-15 -16 -23 -31 -18 -34 4 -3 13 6 20 20 6 14 15 23
19 20 5 -3 9 1 9 9 0 19 1 20 -30 -15z"/>
<path d="M19593 22033 c0 -9 4 -10 14 -2 7 6 13 12 13 14 0 1 -6 2 -13 2 -8 0
-14 -6 -14 -14z"/>
<path d="M19579 22008 c-7 -25 -4 -34 15 -35 19 -2 19 -1 3 8 -9 6 -15 14 -12
20 4 5 4 9 1 9 -3 0 -6 -1 -7 -2z"/>
<path d="M19445 21970 c-3 -5 -1 -10 4 -10 6 0 11 5 11 10 0 6 -2 10 -4 10 -3
0 -8 -4 -11 -10z"/>
<path d="M19475 21959 c-4 -6 -4 -13 -1 -16 3 -4 6 -1 6 6 0 7 5 9 12 5 7 -4
8 -3 4 4 -9 15 -13 15 -21 1z"/>
<path d="M19624 21956 c1 -8 5 -18 8 -22 4 -3 5 1 4 10 -1 8 -5 18 -8 22 -4 3
-5 -1 -4 -10z"/>
<path d="M19400 21947 c0 -8 6 -17 14 -20 9 -4 13 0 12 11 -3 20 -26 29 -26 9z"/>
<path d="M19377 21928 c-2 -7 -1 -22 4 -33 7 -18 8 -18 8 -2 1 11 6 15 12 11
8 -4 8 0 0 15 -13 24 -17 26 -24 9z"/>
<path d="M19596 21932 c-3 -5 1 -9 9 -9 8 0 12 4 9 9 -3 4 -7 8 -9 8 -2 0 -6
-4 -9 -8z"/>
<path d="M19546 21892 c-3 -5 1 -15 8 -21 11 -10 14 -9 12 3 -3 21 -13 29 -20
18z"/>
<path d="M19401 21767 c-8 -10 -7 -14 2 -14 8 0 14 6 14 14 0 7 -1 13 -2 13
-2 0 -8 -6 -14 -13z"/>
<path d="M19280 21746 c0 -13 -5 -16 -20 -11 -15 5 -18 3 -14 -9 3 -9 12 -16
19 -16 15 0 31 38 21 47 -3 4 -6 -1 -6 -11z"/>
<path d="M19354 21723 c3 -4 2 -11 -3 -17 -6 -7 -4 -18 5 -30 8 -11 14 -15 14
-10 0 6 -5 15 -12 22 -12 12 -10 13 12 16 18 2 15 19 -3 22 -11 1 -16 0 -13
-3z"/>
<path d="M19207 21660 c5 -21 33 -28 33 -9 0 5 -4 7 -10 4 -5 -3 -10 1 -10 9
0 9 -4 16 -9 16 -5 0 -7 -9 -4 -20z"/>
<path d="M19379 21653 c-7 -10 -9 -15 -5 -11 5 4 16 2 25 -5 14 -10 14 -10 4
4 -7 9 -10 19 -6 22 3 4 4 7 1 7 -3 0 -12 -8 -19 -17z"/>
<path d="M19365 21610 c-3 -6 1 -7 9 -4 18 7 21 14 7 14 -6 0 -13 -4 -16 -10z"/>
<path d="M19137 21603 c-12 -11 -7 -23 7 -17 8 3 17 1 21 -5 3 -6 -1 -11 -9
-11 -9 0 -16 -5 -16 -11 0 -5 5 -7 10 -4 14 9 12 -9 -2 -24 -11 -10 -10 -11 3
-6 24 9 30 51 9 70 -9 8 -20 12 -23 8z"/>
<path d="M19270 21595 c0 -2 6 -8 13 -14 10 -8 14 -7 14 2 0 8 -6 14 -14 14
-7 0 -13 -1 -13 -2z"/>
<path d="M19253 21535 c0 -8 4 -12 9 -9 5 3 6 10 3 15 -9 13 -12 11 -12 -6z"/>
<path d="M19215 21510 c8 -9 12 -19 9 -22 -3 -3 -1 -9 4 -12 9 -5 9 14 2 34
-1 3 -2 8 -2 11 1 3 -6 6 -14 6 -12 0 -12 -3 1 -17z"/>
<path d="M19099 21498 c-6 -13 -8 -20 -4 -16 5 4 15 2 24 -4 13 -10 14 -10 4
2 -16 18 -17 34 -1 24 7 -4 8 -3 4 4 -10 17 -14 15 -27 -10z"/>
<path d="M19236 21448 c3 -5 10 -6 15 -3 13 9 11 12 -6 12 -8 0 -12 -4 -9 -9z"/>
<path d="M19170 21405 c-7 -9 -10 -18 -6 -22 3 -3 6 -1 6 6 0 7 4 10 8 7 5 -3
9 1 9 9 0 19 -2 19 -17 0z"/>
<path d="M19114 21382 c4 -3 14 -7 22 -8 9 -1 13 0 10 4 -4 3 -14 7 -22 8 -9
1 -13 0 -10 -4z"/>
<path d="M19136 21307 c3 -10 9 -15 12 -12 3 3 0 11 -7 18 -10 9 -11 8 -5 -6z"/>
<path d="M18973 21293 c0 -9 4 -10 14 -2 7 6 13 12 13 14 0 1 -6 2 -13 2 -8 0
-14 -6 -14 -14z"/>
<path d="M19056 21288 c3 -5 10 -6 15 -3 13 9 11 12 -6 12 -8 0 -12 -4 -9 -9z"/>
<path d="M19050 21200 c6 -11 13 -20 16 -20 2 0 0 9 -6 20 -6 11 -13 20 -16
20 -2 0 0 -9 6 -20z"/>
<path d="M18988 21198 c9 -9 9 -15 -1 -27 -10 -14 -10 -14 4 -4 9 7 20 9 25 5
5 -4 0 3 -10 16 -11 12 -22 22 -25 22 -3 0 0 -5 7 -12z"/>
<path d="M18985 21137 c17 -15 35 -26 40 -26 6 0 5 3 -2 5 -7 3 -11 11 -9 17
1 7 1 9 -1 5 -3 -4 -17 0 -31 9 -25 15 -25 14 3 -10z"/>
<path d="M18901 21116 c-17 -20 -22 -54 -8 -52 27 4 37 17 27 35 -5 10 -6 21
-3 25 3 3 4 6 1 6 -3 0 -11 -6 -17 -14z m13 -38 c-9 -14 -23 2 -17 18 4 12 8
13 14 3 4 -7 5 -17 3 -21z"/>
<path d="M18765 21059 c-4 -5 -18 -14 -31 -19 -29 -11 -41 -37 -25 -53 8 -8
16 -5 31 11 11 12 19 27 18 34 -2 7 3 12 10 10 8 -1 11 2 8 7 -4 5 0 12 6 14
9 4 10 6 1 6 -6 1 -15 -4 -18 -10z m-27 -49 c-20 -31 -31 -21 -19 18 1 1 8 2
16 2 13 0 13 -3 3 -20z"/>
<path d="M18986 21058 c3 -5 10 -6 15 -3 13 9 11 12 -6 12 -8 0 -12 -4 -9 -9z"/>
<path d="M18836 21038 c3 -5 10 -6 15 -3 13 9 11 12 -6 12 -8 0 -12 -4 -9 -9z"/>
<path d="M18870 20999 c0 -5 -4 -8 -9 -4 -5 3 -13 1 -16 -5 -4 -6 -3 -10 2 -9
21 4 24 -2 12 -18 -12 -16 -12 -17 2 -6 9 7 19 11 23 8 3 -3 2 0 -3 6 -5 6 -7
18 -4 25 3 8 2 14 -1 14 -3 0 -6 -5 -6 -11z"/>
<path d="M18804 20986 c4 -10 2 -24 -3 -30 -10 -12 -9 -41 1 -51 3 -3 11 1 18
10 7 8 9 15 5 15 -4 0 -2 7 5 15 11 13 10 14 -5 9 -13 -5 -16 -4 -11 4 4 7 2
20 -4 29 -11 17 -11 17 -6 -1z m9 -51 c4 -8 3 -16 -1 -19 -4 -3 -9 4 -9 15 -2
23 3 25 10 4z"/>
<path d="M18655 20919 c-10 -15 3 -25 16 -12 7 7 7 13 1 17 -6 3 -14 1 -17 -5z"/>
<path d="M18753 20913 c0 -7 3 -11 5 -8 3 3 15 -3 26 -12 21 -18 21 -18 3 3
-9 11 -15 23 -12 26 3 2 -1 5 -8 5 -8 0 -14 -6 -14 -14z"/>
<path d="M18850 20916 c0 -2 8 -10 18 -17 15 -13 16 -12 3 4 -13 16 -21 21
-21 13z"/>
<path d="M18756 20882 c6 -4 10 -15 8 -25 -2 -14 1 -15 10 -8 7 6 17 7 22 3 5
-4 0 3 -10 16 -11 12 -24 22 -30 22 -8 0 -8 -2 0 -8z"/>
<path d="M18686 20838 c3 -5 10 -6 15 -3 13 9 11 12 -6 12 -8 0 -12 -4 -9 -9z"/>
<path d="M18726 20838 c3 -5 10 -6 15 -3 13 9 11 12 -6 12 -8 0 -12 -4 -9 -9z"/>
<path d="M18664 20796 c1 -8 5 -18 8 -22 4 -3 5 1 4 10 -1 8 -5 18 -8 22 -4 3
-5 -1 -4 -10z"/>
<path d="M18727 20795 c-4 -8 -3 -16 1 -19 4 -3 9 4 9 15 2 23 -3 25 -10 4z"/>
<path d="M18545 20770 c-4 -6 -12 -7 -18 -3 -7 4 -7 1 1 -9 16 -20 43 -13 35
8 -6 17 -10 17 -18 4z"/>
<path d="M18550 20713 c8 -3 19 -11 23 -17 6 -7 7 -6 4 4 -2 8 -12 16 -23 17
-13 2 -15 1 -4 -4z"/>
<path d="M18606 20701 c-17 -19 -17 -19 0 -17 9 2 18 10 20 19 3 21 1 21 -20
-2z"/>
<path d="M18514 20679 c-3 -6 -2 -15 3 -20 5 -5 9 -1 10 11 2 22 -2 25 -13 9z"/>
<path d="M18605 20661 c-3 -5 -2 -12 3 -15 5 -3 9 1 9 9 0 17 -3 19 -12 6z"/>
<path d="M18475 20650 c3 -5 10 -10 16 -10 5 0 9 5 9 10 0 6 -7 10 -16 10 -8
0 -12 -4 -9 -10z"/>
<path d="M18554 20609 c-4 -7 -3 -9 4 -5 5 3 13 0 15 -6 4 -9 6 -10 6 -1 1 17
-16 25 -25 12z"/>
<path d="M18513 20591 c0 -11 5 -18 9 -15 4 3 5 11 1 19 -7 21 -12 19 -10 -4z"/>
<path d="M18545 20559 c-3 -4 2 -6 10 -5 21 3 28 13 10 13 -9 0 -18 -4 -20 -8z"/>
<path d="M18485 20551 c-3 -5 -2 -12 3 -15 5 -3 9 1 9 9 0 17 -3 19 -12 6z"/>
<path d="M18536 20528 c3 -5 10 -6 15 -3 13 9 11 12 -6 12 -8 0 -12 -4 -9 -9z"/>
<path d="M18460 20493 c12 -26 23 -29 39 -10 8 10 7 14 -4 14 -8 0 -12 -4 -9
-9 10 -15 -9 -8 -23 10 -13 15 -13 15 -3 -5z"/>
<path d="M18456 20442 c-3 -5 1 -9 9 -9 8 0 12 4 9 9 -3 4 -7 8 -9 8 -2 0 -6
-4 -9 -8z"/>
<path d="M18311 20408 c16 -31 16 -31 23 -13 4 11 2 14 -6 9 -8 -5 -9 -2 -5 9
4 11 1 17 -9 17 -12 0 -13 -4 -3 -22z"/>
<path d="M18403 20403 c0 -9 4 -10 14 -2 7 6 13 12 13 14 0 1 -6 2 -13 2 -8 0
-14 -6 -14 -14z"/>
<path d="M18476 20403 c-6 -14 -5 -15 5 -6 7 7 10 15 7 18 -3 3 -9 -2 -12 -12z"/>
<path d="M18399 20353 c-13 -16 -12 -17 4 -4 16 13 21 21 13 21 -2 0 -10 -8
-17 -17z"/>
<path d="M18200 20220 c-9 -6 -10 -10 -3 -10 6 0 15 5 18 10 8 12 4 12 -15 0z"/>
<path d="M18219 20163 c-7 -10 -9 -15 -5 -11 5 4 15 0 22 -10 9 -13 10 -20 1
-31 -10 -12 -9 -12 9 -1 21 13 21 13 2 32 -10 10 -16 23 -13 28 10 17 -2 11
-16 -7z"/>
<path d="M18081 20054 c0 -11 3 -14 6 -6 3 7 2 16 -1 19 -3 4 -6 -2 -5 -13z"/>
<path d="M18051 20034 c0 -11 3 -14 6 -6 3 7 2 16 -1 19 -3 4 -6 -2 -5 -13z"/>
<path d="M18142 20007 c-17 -18 -19 -24 -7 -24 8 0 13 3 10 5 -3 3 2 14 12 24
24 27 10 22 -15 -5z"/>
<path d="M18090 19991 c0 -7 -4 -10 -8 -7 -5 3 -9 -1 -9 -9 0 -10 4 -12 12 -5
19 16 27 -2 9 -21 -14 -16 -14 -17 0 -15 30 4 35 20 15 45 -10 13 -19 18 -19
12z"/>
<path d="M17985 19980 c6 -9 -24 -24 -42 -21 -6 1 -14 -3 -18 -9 -3 -6 0 -7
10 -4 11 4 14 2 9 -9 -3 -8 -1 -18 5 -22 7 -3 11 2 11 13 0 17 19 33 43 36 15
2 11 19 -6 22 -9 1 -15 -1 -12 -6z"/>
<path d="M17920 19914 c0 -3 7 -12 15 -20 16 -17 18 -14 9 10 -6 15 -24 23
-24 10z"/>
<path d="M18007 19896 c-4 -10 -3 -15 3 -11 6 3 10 1 10 -6 0 -7 3 -10 6 -6 3
3 2 13 -4 22 -8 16 -9 16 -15 1z"/>
<path d="M17895 19830 c3 -5 8 -10 11 -10 2 0 4 5 4 10 0 6 -5 10 -11 10 -5 0
-7 -4 -4 -10z"/>
<path d="M18006 19828 c3 -5 10 -6 15 -3 13 9 11 12 -6 12 -8 0 -12 -4 -9 -9z"/>
<path d="M17970 19796 c0 -2 8 -10 18 -17 15 -13 16 -12 3 4 -13 16 -21 21
-21 13z"/>
<path d="M17909 19740 c-1 -5 -2 -16 -3 -22 -1 -7 -10 -13 -22 -12 -11 1 -21
-5 -21 -12 0 -9 5 -10 11 -5 6 5 19 7 28 6 12 -2 16 4 16 26 -1 28 -7 40 -9
19z"/>
<path d="M17656 19572 c-4 -7 -4 -12 1 -13 4 0 -3 -5 -17 -10 -23 -9 -23 -11
-7 -20 14 -8 24 -4 48 15 20 17 25 26 15 26 -9 0 -16 -6 -17 -12 0 -7 -4 -4
-8 6 -5 14 -10 16 -15 8z"/>
<path d="M17761 19566 c-9 -11 -9 -16 1 -22 7 -4 10 -4 6 1 -4 4 -3 14 3 22 6
7 9 13 6 13 -2 0 -10 -6 -16 -14z"/>
<path d="M17796 19572 c-3 -5 1 -9 9 -9 8 0 12 4 9 9 -3 4 -7 8 -9 8 -2 0 -6
-4 -9 -8z"/>
<path d="M17716 19538 c3 -5 9 -7 12 -4 7 8 38 -36 34 -49 -2 -5 2 -4 9 2 19
19 19 41 0 38 -9 -1 -19 3 -23 8 -8 13 -40 19 -32 5z"/>
<path d="M17705 19510 c11 -14 21 -27 22 -29 1 -2 1 6 0 17 0 12 -3 19 -6 17
-2 -3 -11 1 -20 7 -10 8 -8 3 4 -12z"/>
<path d="M17713 19458 c-17 -22 -26 -45 -10 -26 8 10 16 16 19 13 2 -3 5 2 5
10 0 18 -2 18 -14 3z"/>
<path d="M17646 19413 c-6 -14 -5 -15 5 -6 7 7 10 15 7 18 -3 3 -9 -2 -12 -12z"/>
<path d="M17480 19291 c0 -5 5 -13 10 -16 6 -3 10 -2 10 4 0 5 -4 13 -10 16
-5 3 -10 2 -10 -4z"/>
<path d="M17527 19272 c-3 -4 5 -20 18 -36 16 -20 25 -25 30 -16 5 9 4 11 -3
6 -17 -11 -15 9 3 24 8 7 15 18 15 24 0 6 -5 4 -10 -6 -11 -18 -47 -17 -42 1
2 13 -4 15 -11 3z"/>
<path d="M17356 19140 c3 -3 16 -5 29 -5 14 -1 22 2 19 5 -3 3 -16 5 -29 5
-14 1 -22 -2 -19 -5z"/>
<path d="M17473 19132 c2 -12 6 -24 10 -28 3 -4 4 4 2 16 -6 30 -16 40 -12 12z"/>
<path d="M17400 19033 c0 -6 8 -17 18 -24 16 -13 16 -13 2 6 -8 11 -16 22 -17
24 -2 2 -3 0 -3 -6z"/>
<path d="M17350 19009 c13 -24 21 -25 13 -1 -5 14 -3 15 8 5 7 -7 18 -13 24
-13 12 1 -25 23 -42 26 -10 2 -10 -3 -3 -17z"/>
<path d="M17310 18987 c0 -2 6 -10 14 -16 11 -9 16 -9 22 1 4 7 4 10 -1 6 -4
-4 -14 -3 -22 3 -7 6 -13 9 -13 6z"/>
<path d="M17315 18941 c-3 -5 -2 -12 3 -15 5 -3 9 1 9 9 0 17 -3 19 -12 6z"/>
<path d="M17266 18858 c3 -5 10 -6 15 -3 13 9 11 12 -6 12 -8 0 -12 -4 -9 -9z"/>
<path d="M17231 18837 c-8 -10 -7 -14 2 -14 8 0 14 6 14 14 0 7 -1 13 -2 13
-2 0 -8 -6 -14 -13z"/>
<path d="M17025 18685 c1 -14 6 -29 10 -33 4 -4 4 4 0 17 -6 18 -4 22 6 15 12
-6 12 -5 0 9 -18 22 -20 22 -16 -8z"/>
<path d="M17126 18698 c3 -5 10 -6 15 -3 13 9 11 12 -6 12 -8 0 -12 -4 -9 -9z"/>
<path d="M17103 18665 c0 -8 4 -12 9 -9 5 3 6 10 3 15 -9 13 -12 11 -12 -6z"/>
<path d="M17121 18647 c-8 -10 -7 -14 2 -14 8 0 14 6 14 14 0 7 -1 13 -2 13
-2 0 -8 -6 -14 -13z"/>
<path d="M17010 18619 c0 -5 5 -7 10 -4 6 3 10 8 10 11 0 2 -4 4 -10 4 -5 0
-10 -5 -10 -11z"/>
<path d="M16965 18590 c-3 -5 -1 -10 4 -10 6 0 11 5 11 10 0 6 -2 10 -4 10 -3
0 -8 -4 -11 -10z"/>
<path d="M17034 18568 c-4 -7 -4 -10 1 -6 4 4 15 2 24 -5 14 -11 14 -10 2 6
-16 20 -18 21 -27 5z"/>
</g>
</svg>
